<svg width="14" height="13" viewBox="0 0 14 13" fill="none" xmlns="http://www.w3.org/2000/svg">
<path d="M1.22836 3.18546C1.37913 2.82148 1.60011 2.49076 1.87869 2.21219C2.15727 1.93361 2.48799 1.71263 2.85197 1.56186C3.21595 1.41109 3.60606 1.3335 4.00003 1.3335C4.39399 1.3335 4.78411 1.41109 5.14808 1.56186C5.51206 1.71263 5.84278 1.93361 6.12136 2.21219L7.00003 3.09086L7.87869 2.21219C8.44131 1.64958 9.20437 1.3335 10 1.3335C10.7957 1.3335 11.5587 1.64958 12.1214 2.21219C12.684 2.7748 13 3.53787 13 4.33352C13 5.12918 12.684 5.89224 12.1214 6.45486L7.00003 11.5762L1.87869 6.45486C1.60011 6.17628 1.37913 5.84556 1.22836 5.48158C1.0776 5.1176 1 4.72749 1 4.33352C1 3.93955 1.0776 3.54944 1.22836 3.18546Z" stroke="#A1A1AA" stroke-width="1.33333" stroke-linecap="round" stroke-linejoin="round"/>
</svg>
